<?xml version="1.0" encoding="UTF-8"?>
<!-- Created with Inkscape (http://www.inkscape.org/) -->
<svg version="1.1" viewBox="0 0 86.223 34" xmlns="http://www.w3.org/2000/svg"><path d="m47.834 30.54-2.9732-4.9824-0.97088 1.0228v3.9595h-1.0096v-10.32h1.0096v5.1692l3.5844-5.1692h1.1892l-3.1695 4.48 3.5922 5.8404zm2.8299-3.6856c0 0.90592 0.13627 1.6057 0.40702 2.1022 0.26919 0.49178 0.66479 0.7371 1.1849 0.7371 0.41469 0 0.7443-0.11217 0.99072-0.34516 0.2504-0.22727 0.41875-0.52049 0.50487-0.87036l0.83343 0.3335c-0.34043 1.25-1.116 1.875-2.329 1.875-0.84057 0-1.4866-0.35167-1.9284-1.0514-0.44256-0.69504-0.66216-1.7359-0.66216-3.1143 0-1.3073 0.2196-2.3061 0.66216-3.007 0.44174-0.70154 1.0717-1.0456 1.8931-1.0456 1.6792 0 2.5165 1.4013 2.5165 4.2108v0.17522zm3.0945-1.0111c-0.05396-0.83402-0.20734-1.4414-0.46181-1.827-0.25356-0.3861-0.61819-0.57882-1.0909-0.57882-0.4618 0-0.82644 0.21672-1.1 0.64893-0.26648 0.42638-0.41048 1.0092-0.43077 1.7569zm2.4691 7.8099c-0.26131 0-0.47661-0.02973-0.65299-0.08232v-0.99298c0.13341 0.03625 0.28166 0.04793 0.44174 0.04793 0.59122 0 1.0608-0.60215 1.4056-1.8107l0.08927-0.31533-2.265-7.8864h1.0128l1.206 4.3813c0.01484 0.06418 0.03905 0.15121 0.06222 0.24521 0.02385 0.09289 0.10206 0.41415 0.2383 0.9527 0.13349 0.54259 0.20426 0.84636 0.21524 0.91063l0.3678-1.4434 1.2522-5.0465h1.0018l-2.1948 7.9267c-0.2344 0.84052-0.45392 1.4713-0.66141 1.8807-0.20306 0.41471-0.43032 0.72431-0.6808 0.92286-0.2465 0.20506-0.52396 0.3096-0.83787 0.3096z" fill="#098" stroke="#098" stroke-linecap="square" stroke-width=".62222"/><path d="m28.758 20.782c0.32139 0.58301 0.23466 0.52464 0.86858 0.44658 0.94916-0.01707 1.8043-1.0218 1.6574-2.0844 1.6762 0.09974 3.3602 0.05837 5.0431 0.07531 11.652 0.05294 23.302 0.08677 34.954 0.12361 0.03953 0.51687 0.06683 1.0375-0.02081 1.5468-1.5907-0.02994-3.1793-0.02994-4.7699-0.01276-0.02067 0.88483-0.04588 1.7738 0.01378 2.6545 0.40017 0.19056 0.81367 0.33446 1.2345 0.46683 0.09428 0.34725 0.07363 0.71983 0.02749 1.0713-0.4343 0.12403-0.84178 0.33033-1.2761 0.42546-0.0064 2.0347-0.10751 3.3163-0.02731 5.3505 1.4042 0.0132 2.8131-0.09548 4.2228 0 0.07337-1.4471 0.04069-2.1085 0.02068-3.5594 0.63405-0.09101 1.2686 0.01573 1.9033-0.05415 0.07339 1.4343-0.02065 2.175-0.02065 3.6135 1.1356 0.09955 2.278 0.04548 3.4135 0 0.07352-1.4302-0.03274-2.1379 0.06685-3.5722 0.588-0.02112 1.1832 0.0085 1.7716-0.01276 0.2072 1.431-0.02069 2.1424 0.09907 3.585 1.3974 0.06249 2.7935-0.04545 4.1957 0 0.09428-2.026 0.04034-3.258 0.04034-5.284-0.42762-0.14057-0.83446-0.34272-1.2753-0.43784-0.07363-0.36011-0.03413-0.73683 0.01856-1.0998 0.41557-0.11256 0.81573-0.28158 1.2226-0.43086 0.12164-0.33867 0.01393-0.70704 0.0341-1.0618-0.0341-0.54616 0-1.0923 0.04682-1.6374-0.18642-0.02993-0.38682-0.03394-0.57529-0.02566-1.4222 0.05837-2.8385-0.01225-4.2615 0.04143-0.04608-0.48375-0.01393-0.97584-0.02746-1.4637 1.5445-0.11537 3.0938-0.0033 4.6364-0.02039 0-0.26047-0.01872-0.51639-0.0066-0.77684 0.08684-0.1778 0.26866-0.06241 0.36758 0.04545 0.30137 0.34324 0.60184 0.7232 1.0366 0.88082 0.9956 0.40847 2.184-0.19891 2.6389-1.2289 0.46714-1.0544 0.04616-2.4642-0.88911-3.0221-0.66202-0.31826-1.4697-0.40975-2.1037 0.01707-0.40209 0.22244-0.54912 0.87658-1.0622 0.85554-0.01378-0.29777 0.0789-0.59508 0.02554-0.89357-16.894-0.10258-33.79 0.10789-50.678-0.01572 0.1537-1.4315-1.4416-2.5056-2.5653-1.8482" fill="#c31" stroke-width="1.0094"/><g transform="matrix(1.1852 0 0 1.0576 -.011413 -1.8284)" fill="none" stroke-width="4.0989"><path d="m2.0591 31.826h12.069v-14.164h-12.069z" stroke="#c31"/><path d="m10.011 25.214h12.347v-14.164h-12.347z" stroke="#098"/><path d="m13.443 3.7782h-6.7897c-1.3701 0-2.6733 2.5502-2.6733 5.0066v5.0066c0 2.5461 1.3701 5.0015 2.6733 5.0015h6.7897c1.3713 0 2.6743-2.5499 2.6743-5.0015v-5.0066c0-2.5498-1.3711-5.0066-2.6743-5.0066" stroke="#3be"/></g><path d="m31.159 11.019v-10.023h0.9378v8.9134h3.4957v1.1097zm9.9371-3.8556c0 1.3469-0.20454 2.3499-0.61377 3.0091-0.40909 0.6592-1.0032 0.9888-1.7821 0.9888-0.77579 0-1.3617-0.34146-1.7577-1.0244-0.39612-0.68765-0.59411-1.6788-0.59411-2.9735 0-2.6558 0.79377-3.9837 2.3812-3.9837 0.81176 0 1.4091 0.32485 1.792 0.97457 0.38301 0.64498 0.57445 1.648 0.57445 3.0091zm-0.92791 0c0-1.0623-0.10973-1.8329-0.32892-2.3119-0.21612-0.48372-0.58101-0.72559-1.0949-0.72559-0.51702 0-0.89181 0.24661-1.1242 0.73983-0.22909 0.48847-0.3437 1.2544-0.3437 2.2977 0 1.0149 0.11295 1.7784 0.33882 2.2906 0.22909 0.50744 0.58743 0.76116 1.0752 0.76116 0.53026 0 0.90826-0.24661 1.1341-0.73982 0.22909-0.49322 0.3437-1.2639 0.3437-2.3119zm4.0406 6.8789c-0.57934 0-1.0409-0.16596-1.3846-0.498-0.34357-0.32723-0.56456-0.79428-0.66272-1.4014l0.8886-0.1849c0.05899 0.35566 0.18823 0.62833 0.38789 0.81803 0.20288 0.1945 0.46807 0.29162 0.79532 0.29162 0.8805 0 1.3207-0.74693 1.3207-2.2408v-1.2378h-0.0097c-0.16691 0.49321-0.39599 0.8655-0.6874 1.1168-0.29128 0.2466-0.63163 0.36991-1.0212 0.36991-0.65129 0-1.1308-0.313-1.4385-0.939-0.30434-0.62601-0.4566-1.6101-0.4566-2.9522 0-1.3611 0.16369-2.3641 0.49107-3.0091 0.33059-0.64971 0.83129-0.97457 1.5022-0.97457 0.37646 0 0.70216 0.12567 0.97712 0.37702 0.27816 0.2466 0.4926 0.59991 0.64306 1.0599h0.01c0-0.14227 0.0066-0.38888 0.01949-0.73982 0.0131-0.35094 0.02623-0.54302 0.03934-0.57621h0.83951c-0.01964 0.2561-0.02941 0.78724-0.02941 1.5935v5.883c0 2.1626-0.74136 3.2438-2.2241 3.2438zm1.3452-6.8718c0-0.62599-0.05886-1.1643-0.17667-1.6148-0.11795-0.45528-0.28485-0.80147-0.50083-1.0386-0.21277-0.24186-0.45496-0.3628-0.72658-0.3628-0.45175 0-0.78067 0.23712-0.98689 0.71137-0.20622 0.47425-0.30926 1.2425-0.30926 2.3048 0 1.0528 0.09648 1.8092 0.2896 2.2693 0.19312 0.46001 0.52371 0.69002 0.99177 0.69002 0.27817 0 0.52537-0.11856 0.74136-0.35568 0.21598-0.23712 0.38288-0.57621 0.50083-1.0173 0.11784-0.44579 0.17667-0.97458 0.17667-1.5864zm2.2289-5.4846v-1.2235h0.88372v1.2235zm0 9.3331v-7.697h0.88372v7.697zm2.9115-3.8841c0 1.0244 0.11127 1.7832 0.3338 2.2764 0.22266 0.49321 0.55814 0.73982 1.0065 0.73982 0.31414 0 0.57599-0.12331 0.78555-0.36991 0.21264-0.24661 0.34357-0.626 0.39265-1.1382l0.8936 0.085365c-0.06874 0.73981-0.28639 1.3303-0.65295 1.7713-0.36656 0.44104-0.83142 0.66157-1.3943 0.66157-0.74303 0-1.3109-0.33908-1.7037-1.0173-0.38944-0.68292-0.58422-1.6765-0.58422-2.9806 0-1.2947 0.19645-2.2811 0.5891-2.9593 0.39278-0.68291 0.95579-1.0244 1.6889-1.0244 0.54336 0 0.99344 0.20392 1.3502 0.61178 0.36002 0.40785 0.58576 0.96983 0.6775 1.6859l-0.90826 0.099587c-0.045857-0.42681-0.16202-0.7659-0.34858-1.0173-0.18669-0.25135-0.45175-0.37702-0.79544-0.37702-0.46807 0-0.80675 0.22528-1.0163 0.67581-0.20943 0.45053-0.31414 1.2093-0.31414 2.2764zm5.7098 4.0263c-0.53347 0-0.93447-0.20394-1.2029-0.61177-0.26841-0.40785-0.40254-0.96747-0.40254-1.6788 0-0.79674 0.18-1.4085 0.54002-1.8353 0.36335-0.42682 0.94757-0.65446 1.7528-0.68292l1.193-0.028457v-0.4197c0-0.62601-0.09156-1.0742-0.27496-1.3445-0.18322-0.27032-0.47128-0.40548-0.86406-0.40548-0.39599 0-0.68405 0.097225-0.86406 0.29167-0.18001 0.19444-0.28806 0.50507-0.32404 0.93189l-0.92303-0.12094c0.15058-1.3848 0.86084-2.0772 2.1308-2.0772 0.66773 0 1.1701 0.22289 1.5072 0.66868 0.33714 0.44104 0.50572 1.0813 0.50572 1.9207v3.315c0 0.3794 0.03428 0.66632 0.10302 0.86076 0.06872 0.1897 0.19966 0.28455 0.39277 0.28455 0.08513 0 0.18168-0.01662 0.28973-0.04981v0.79674c-0.22266 0.07585-0.45008 0.11381-0.6825 0.11381-0.32725 0-0.56623-0.1233-0.71681-0.36991-0.14724-0.25135-0.23075-0.6426-0.25028-1.1738h-0.02955c-0.22585 0.58806-0.48924 1.0054-0.79041 1.252-0.29783 0.24188-0.66118 0.3628-1.0899 0.3628zm0.20134-0.96034c0.32404 0 0.61209-0.10671 0.86406-0.32012 0.25208-0.21342 0.45008-0.50508 0.59411-0.87498 0.14725-0.37466 0.22086-0.7588 0.22086-1.1524v-0.63312l-0.96722 0.028459c-0.41565 0.00946-0.73147 0.071129-0.94745 0.18495-0.21277 0.11382-0.37646 0.2893-0.49107 0.52642-0.11447 0.23711-0.17178 0.54774-0.17178 0.93189 0 0.41733 0.07692 0.73982 0.23075 0.96746 0.15714 0.22764 0.37967 0.34146 0.66774 0.34146zm4.0357 0.81807v-10.557h0.88372v10.557zm11.056 0v-6.6868c0-0.73983 0.01466-1.4512 0.04421-2.1341-0.16048 0.8489-0.30452 1.5128-0.4321 1.9918l-1.7871 6.8291h-0.65784l-1.8118-6.8291-0.27482-1.2093-0.16203-0.7825 0.01467 0.78961 0.01963 1.3445v6.6868h-0.83467v-10.023h1.2323l1.8412 6.95c0.0654 0.2798 0.12759 0.58094 0.18655 0.90343 0.06219 0.31774 0.10304 0.54775 0.12274 0.69003 0.02619-0.1897 0.08015-0.47661 0.16202-0.86076 0.08504-0.38887 0.14235-0.63312 0.17178-0.7327l1.8068-6.95h1.2029v10.023zm3.7018 0.14227c-0.53347 0-0.93447-0.20394-1.2029-0.61177-0.26828-0.40785-0.40254-0.96747-0.40254-1.6788 0-0.79674 0.18001-1.4085 0.54002-1.8353 0.36335-0.42682 0.94757-0.65446 1.7528-0.68292l1.193-0.028457v-0.4197c0-0.62601-0.09156-1.0742-0.27483-1.3445-0.18335-0.27032-0.47141-0.40548-0.86419-0.40548-0.39598 0-0.68405 0.097225-0.86404 0.29167-0.18002 0.19444-0.28807 0.50507-0.32404 0.93189l-0.92303-0.12094c0.15058-1.3848 0.86084-2.0772 2.1308-2.0772 0.66773 0 1.1701 0.22289 1.5072 0.66868 0.33714 0.44104 0.50572 1.0813 0.50572 1.9207v3.315c0 0.3794 0.03428 0.66632 0.10303 0.86076 0.06871 0.1897 0.19966 0.28455 0.39277 0.28455 0.08515 0 0.18168-0.01662 0.28974-0.04981v0.79674c-0.22254 0.07585-0.45008 0.11381-0.68251 0.11381-0.32726 0-0.56623-0.1233-0.71669-0.36991-0.14736-0.25136-0.23075-0.6426-0.25041-1.1738h-0.02956c-0.22574 0.58806-0.48926 1.0054-0.79043 1.252-0.29783 0.24188-0.66105 0.36281-1.0899 0.36281zm0.20134-0.96034c0.32404 0 0.6121-0.10671 0.86405-0.32012 0.25209-0.21342 0.45009-0.50508 0.59412-0.87498 0.14724-0.37466 0.22086-0.7588 0.22086-1.1524v-0.63312l-0.9671 0.028459c-0.41577 0.00946-0.73159 0.071129-0.94757 0.18495-0.21277 0.11382-0.37646 0.2893-0.49094 0.52642-0.1146 0.23711-0.17191 0.54774-0.17191 0.93189 0 0.41733 0.07692 0.73982 0.23076 0.96746 0.15714 0.22764 0.37967 0.34146 0.66774 0.34145zm8.528-3.066c0 2.6842-0.65142 4.0263-1.954 4.0263-0.81831 0-1.3682-0.4458-1.6497-1.3374h-0.02452c0.01312 0.037943 0.01962 0.44104 0.01962 1.2093v3.0091h-0.8837v-9.1482c0-0.79199-0.0097-1.316-0.02943-1.5721h0.85429c0.0031 0.018968 0.0082 0.087728 0.01467 0.2063 0.0066 0.11382 0.01311 0.29166 0.01961 0.53352 0.0098 0.24187 0.0148 0.40785 0.0148 0.49795h0.01962c0.15701-0.47424 0.36489-0.82044 0.6234-1.0386 0.25864-0.2229 0.599-0.33435 1.0212-0.33435 0.65463 0 1.144 0.31774 1.4681 0.95323 0.32404 0.63549 0.48606 1.6338 0.48606 2.9949zm-0.92791 0.028458c0-1.0718-0.09984-1.8377-0.2995-2.2977-0.19966-0.46001-0.51715-0.69003-0.95245-0.69003-0.35025 0-0.6252 0.10671-0.82487 0.32011-0.19632 0.21342-0.3469 0.54775-0.45162 1.003-0.10152 0.45053-0.15225 1.0386-0.15225 1.7642 0 1.0101 0.11127 1.7547 0.33393 2.2337 0.22254 0.47899 0.58422 0.71847 1.0849 0.71847 0.43864 0 0.7578-0.23238 0.95747-0.69714 0.20288-0.4695 0.30438-1.2544 0.30438-2.3546z" fill="#098" stroke="#098" stroke-linecap="square" stroke-width=".47615" aria-label="Logical Map"/></svg>
