<?xml version="1.0" encoding="UTF-8"?>
<svg version="1.1" viewBox="0 0 75 34" xmlns="http://www.w3.org/2000/svg"><path d="m32.388 2.415v9.0224h-1.1907v-9.0224h-2.8776v-1.0663h6.9459v1.0663zm3.473 5.2494c0 0.90224 0.15876 1.5584 0.46637 2.0505 0.3076 0.47572 0.76405 0.71359 1.3892 0.71359 0.46637 0 0.84343-0.10663 1.0915-0.32809 0.28776-0.22146 0.47629-0.50033 0.57552-0.82021l0.95258 0.31988c-0.38699 1.2303-1.29 1.8045-2.6791 1.8045-0.96251 0-1.6869-0.33629-2.183-0.98426-0.49614-0.67258-0.75413-1.6404-0.75413-2.9528 0-1.2303 0.24807-2.2146 0.75413-2.8708 0.50606-0.67258 1.1907-0.98426 2.183-0.98426 1.8853 0 2.8776 1.3123 2.8776 4.0191v0.17225zm3.473-0.98426c-0.060531-0.80381-0.23815-1.3944-0.52591-1.7225-0.28776-0.3691-0.70452-0.55774-1.29-0.55774-0.52591 0-0.94266 0.20505-1.29 0.61516-0.30761 0.41011-0.46637 0.98426-0.49614 1.7225zm2.4807 4.5112v-5.8235c0-0.53314-0.01192-1.1483-0.03572-1.8045h0.99228c0.03175 0.90224 0.04763 1.3944 0.04763 1.5584h0.02381c0.16869-0.64797 0.36714-1.0663 0.59537-1.3123 0.22822-0.23786 0.54575-0.36089 0.95258-0.36089 0.14884 0 0.28776 0.023786 0.4366 0.070539v1.1483c-0.14884-0.046762-0.33737-0.070538-0.57552-0.070538-0.44652 0-0.79382 0.22966-0.99228 0.68078-0.23815 0.45112-0.35722 1.0663-0.35722 1.9685v3.937zm7.839 0v-4.8393c0-0.73819-0.08633-1.2303-0.25799-1.5584-0.16869-0.27887-0.48621-0.41831-0.93274-0.41831-0.45645 0-0.82359 0.20505-1.0915 0.61516-0.26791 0.41011-0.40683 0.98426-0.40683 1.7225v4.4292h-1.0915v-5.9876c0-0.90224-0.01192-1.3944-0.03572-1.6404h0.99228c0.0038 0.023795 0.0077 0.090213 0.01192 0.18865 0.0038 0.10663 0.0077 0.22146 0.01192 0.36089 0.0079 0.13123 0.01588 0.3855 0.0238 0.7546h0.01786c0.22822-0.54134 0.49614-0.90224 0.80374-1.1483 0.29768-0.21326 0.66482-0.31988 1.0915-0.31988 0.49614 0 0.88313 0.11483 1.1907 0.34449 0.28776 0.22966 0.48622 0.59876 0.60529 1.0663h0.01786c0.22821-0.50853 0.49613-0.90224 0.81366-1.0663 0.31753-0.22146 0.70452-0.33629 1.1907-0.33629 0.6549 0 1.0915 0.20505 1.3892 0.62336 0.29768 0.41831 0.44652 1.0663 0.44652 2.0505v5.0853h-1.0915v-4.8393c0-0.73819-0.08632-1.2303-0.25799-1.5584-0.17167-0.32809-0.48622-0.41831-0.93274-0.41831-0.47629 0-0.84344 0.20505-1.0915 0.61516-0.25799 0.41011-0.38699 0.98426-0.38699 1.7225v4.4292zm10.915-2.1326c0 0.71359-0.22822 1.2303-0.69459 1.6404-0.45645 0.3855-1.0915 0.58235-1.9846 0.58235-0.81367 0-1.3892-0.15584-1.8853-0.46752-0.4366-0.31168-0.72436-0.80381-0.85336-1.4764l0.95259-0.22146c0.09228 0.41011 0.27784 0.70539 0.57552 0.90224 0.28776 0.18865 0.68467 0.27887 1.1907 0.27887 0.54575 0 0.95258-0.09843 1.1907-0.29528 0.25799-0.19685 0.38699-0.49213 0.38699-0.90224 0-0.30348-0.08831-0.54134-0.26792-0.72999-0.17861-0.18865-0.45645-0.34449-0.85336-0.46752l-0.77398-0.23786c-0.62513-0.18865-1.0915-0.3691-1.29-0.54954-0.25799-0.18045-0.46637-0.40191-0.61521-0.66437-0.14884-0.26247-0.2183-0.57415-0.2183-0.98426 0-0.69718 0.20838-1.2303 0.63506-1.5584 0.42668-0.3691 0.99228-0.54954 1.8853-0.54954 0.71444 0 1.29 0.14764 1.6869 0.44292 0.42668 0.29528 0.6946 0.771 0.80374 1.3944l-0.97243 0.13944c-0.060532-0.33629-0.2183-0.59876-0.48622-0.771-0.25799-0.18045-0.61521-0.27067-1.0915-0.27067-0.48622 0-0.85336 0.090222-1.0915 0.26247-0.22822 0.17224-0.3473 0.43471-0.3473 0.78741 0 0.21326 0.04763 0.3937 0.14884 0.53314 0.09625 0.13944 0.23815 0.26247 0.42668 0.36089 0.18853 0.098426 0.58544 0.23786 1.1907 0.41011 0.57552 0.17225 0.98235 0.32809 1.1907 0.46752 0.24807 0.13944 0.44652 0.29528 0.59537 0.46752 0.14884 0.17225 0.25799 0.3773 0.3473 0.60696 0.08038 0.22146 0.11907 0.48393 0.11907 0.771zm10.915 2.2146c-0.70452 0-1.29-0.29528-1.7861-0.90224-0.29768 0.30348-0.64498 0.54134-0.99228 0.70539-0.38699 0.16404-0.7839 0.24606-1.1907 0.24606-0.86328 0-1.4884-0.23786-1.9846-0.72179-0.4763-0.48393-0.70452-1.1483-0.70452-2.0505 0-1.3123 0.68467-2.2966 2.0838-3.0348-0.129-0.28708-0.24807-0.63157-0.3473-1.0663-0.09626-0.40191-0.14884-0.7628-0.14884-1.0663 0-0.70539 0.17861-1.2303 0.54575-1.6404 0.36714-0.3855 0.89305-0.58235 1.5876-0.58235 0.60529 0 1.0915 0.18045 1.4884 0.53314 0.37706 0.35269 0.55567 0.82022 0.55567 1.4764 0 0.54954-0.18853 1.0663-0.55567 1.4764-0.36714 0.43471-0.99228 0.82021-1.8853 1.3123 0.44652 0.98426 0.99228 1.8865 1.7861 2.8708 0.45644-0.77921 0.79382-1.7225 0.99228-2.8708l0.8732 0.30348c-0.24807 1.1483-0.67475 2.2966-1.29 3.2809 0.38699 0.45932 0.80374 0.68898 1.29 0.68898 0.28776 0 0.51598-0.03773 0.70452-0.11483v0.98426c-0.22822 0.10663-0.50606 0.15584-0.84343 0.15584zm-1.9846-8.0381c0-0.33629-0.09923-0.61516-0.29768-0.82022-0.19846-0.21326-0.4763-0.31988-0.81367-0.31988-0.38699 0-0.67475 0.12303-0.8732 0.3691-0.19846 0.23786-0.29768 0.57415-0.29768 0.98426 0 0.53314 0.129 1.0663 0.38699 1.7225 0.52591-0.24607 0.91289-0.46752 1.1907-0.64797 0.24807-0.18045 0.4366-0.3773 0.55568-0.59055 0.129-0.21326 0.18853-0.44292 0.18853-0.69718zm-0.44652 6.3977c-0.79382-1.0663-1.3892-2.1326-1.8853-3.1988-0.94266 0.46752-1.3892 1.1483-1.3892 2.1326 0 0.56595 0.15876 0.98426 0.46637 1.3123 0.31753 0.32809 0.73428 0.49213 1.29 0.49213 0.28776 0 0.5656-0.06316 0.85336-0.18865 0.28776-0.13123 0.53583-0.31988 0.74421-0.55775z" fill="#098" stroke="#098" stroke-width=".4821" aria-label="Terms &amp;"/><path d="m40.801 22.352c0 0.95282-0.24492 1.819-0.74417 2.3387-0.48983 0.58036-1.1304 0.86621-1.9782 0.86621h-2.355v4.0712h-1.1304v-10.394h3.3911c0.90431 0 1.6014 0.27719 2.0724 0.8229 0.48983 0.54571 0.74417 1.2993 0.74417 2.3388zm-1.1304 0.01472c0-1.3859-0.62171-1.9923-1.884-1.9923h-2.1666v4.1578h2.1666c1.2246 0 1.7898-0.70163 1.7898-2.0789zm2.5434 7.2761v-6.15c0-0.56303-0.01131-1.2127-0.03391-1.9056h0.94198c0.03014 0.95282 0.04522 1.4725 0.04522 1.6458h0.0226c0.16014-0.6843 0.34854-1.1261 0.56519-1.3859 0.21666-0.2512 0.51809-0.38113 0.9043-0.38113 0.1413 0 0.27318 0.02424 0.41448 0.0745v1.2127c-0.1413-0.04938-0.32028-0.0745-0.54635-0.0745-0.42389 0-0.75359 0.24254-0.94198 0.71895-0.22608 0.47641-0.33912 1.1261-0.33912 2.0789v4.1578zm3.8621-9.5282v-1.2993h1.0362v1.2993zm0 9.5282v-8.0557h1.0362v8.0557zm5.2751 0h-1.2246l-2.2608-8.0557h1.1304l1.3188 5.1972c0.04899 0.19923 0.17898 0.78825 0.39564 1.7324l0.19781-0.8662 0.22608-0.8662 1.413-5.1972h1.1304zm4.7099 0.14725c-0.62171 0-1.1304-0.21655-1.413-0.64099-0.2826-0.42444-0.47099-1.0394-0.47099-1.7324 0-0.83156 0.20724-1.4725 0.63113-1.9056 0.4239-0.44176 1.1304-0.6843 2.0724-0.71029l1.413-0.02947v-0.44176c0-0.64965-0.10362-1.1261-0.32027-1.3859-0.21666-0.28584-0.54635-0.42443-1.0362-0.42443-0.46158 0-0.79127 0.10395-1.0362 0.30317-0.20724 0.19923-0.33911 0.52838-0.37679 0.95282l-1.0362-0.12993c0.17898-1.4725 1.0362-2.1655 2.4492-2.1655 0.77243 0 1.3188 0.23388 1.7898 0.70163 0.39563 0.45909 0.58403 1.1261 0.58403 1.9923v3.4648c0 0.39845 0.03956 0.69296 0.12246 0.8662 0.08007 0.19923 0.2355 0.29451 0.45215 0.29451 0.0942 0 0.20724-0.01732 0.33911-0.05198v0.83156c-0.25434 0.07883-0.52751 0.12127-0.79127 0.12127-0.37679 0-0.65939-0.12993-0.82895-0.38979-0.16956-0.25986-0.26376-0.66698-0.29202-1.2127h-0.03391c-0.26376 0.615-0.56519 1.0394-0.92314 1.2993-0.34853 0.2512-0.77243 0.38113-1.2246 0.38113zm0.2355-1.0394c0.37679 0 0.71591-0.1126 1.0362-0.33782 0.29202-0.22521 0.52751-0.52838 0.68765-0.95282 0.16956-0.38979 0.25434-0.78824 0.25434-1.2127v-0.65832l-1.1304 0.02947c-0.48041 0.0095-0.84779 0.0745-1.1304 0.19056-0.24492 0.12127-0.43331 0.30317-0.57461 0.54571-0.1413 0.24254-0.19782 0.57169-0.19782 0.95282 0 0.4331 0.08948 0.77092 0.26376 1.0394 0.17898 0.23388 0.44273 0.35515 0.77243 0.35515zm5.4635-3.205c0 1.0394 0.13188 1.819 0.38622 2.3387 0.25433 0.51106 0.64997 0.77092 1.1304 0.77092 0.36738 0 0.66881-0.12993 0.91373-0.38979 0.24492-0.25986 0.39563-0.64965 0.45215-1.2127l1.0362 0.08662c-0.08007 0.77092-0.32969 1.3859-0.76301 1.819-0.42389 0.45909-0.94199 0.69296-1.6014 0.69296-0.86663 0-1.5072-0.35514-1.9782-1.0394-0.45215-0.71029-0.67823-1.7324-0.67823-3.1183 0-1.3859 0.22608-2.3388 0.68765-3.1183 0.45215-0.71029 1.1304-1.0394 1.9782-1.0394 0.63113 0 1.1304 0.21655 1.6014 0.64099 0.41447 0.42444 0.67823 1.0394 0.79127 1.7324l-1.0362 0.10394c-0.05275-0.44176-0.18839-0.79691-0.40505-1.0394-0.21666-0.24254-0.52751-0.38979-0.92315-0.38979-0.54635 0-0.94198 0.23388-1.2246 0.70163-0.24492 0.46775-0.36738 1.2993-0.36738 2.3387zm5.3693 7.1895c-0.2826 0-0.51809-0.02684-0.70649-0.08142v-1.0394c0.1413 0.02946 0.30143 0.04417 0.48041 0.04417 0.64055 0 1.1304-0.615 1.5072-1.819l0.0942-0.3205-2.4492-7.9691h1.1304l1.3188 4.4176c0.01885 0.0693 0.04145 0.15592 0.06876 0.2512 0.02637 0.09528 0.11304 0.41578 0.25434 0.95283 0.1413 0.53705 0.22608 0.85754 0.23549 0.95282l0.39564-1.4725 1.3188-5.1106h1.1304l-2.355 8.0557c-0.25434 0.85754-0.48983 1.4725-0.71591 1.9056-0.21666 0.42444-0.46157 0.73627-0.73475 0.95282-0.26376 0.20789-0.56519 0.31183-0.90431 0.31183z" fill="#098" stroke="#098" stroke-width=".50111" aria-label="Privacy"/><g transform="matrix(1.4868 -.26552 .26606 1.4695 -2.8818 -3.8615)"><text transform="matrix(1 0 0 .92 -123 -120)" x="89.202377" y="121.61904" fill="#000000" font-family="sans-serif" font-size="23px" letter-spacing="0px" stroke-width=".26" word-spacing="0px" style="line-height:0" xml:space="preserve"><tspan x="89.202377" y="127.48397" stroke-width=".25"/></text><path d="m5.381 4.7197c-0.18057-0.10851-0.4055-0.048063-0.49314 0.13496l-0.22786 0.47647c-0.087659 0.18606-0.013313 0.41807 0.16899 0.52674l4.3855 2.6091c0.18057 0.10851 0.4055 0.048057 0.49314-0.13496l0.22786-0.47647c0.087654-0.18606 0.013222-0.41807-0.16899-0.52674zm-0.45163 1.5975-2.8041 5.8082 3.7836 2.2474 2.8041-5.8082zm3.5063 4.8341c-0.20637-0.12314-0.45727-0.054253-0.55372 0.15345l-0.59576 1.219c-0.096459 0.20952-0.015465 0.47864 0.19437 0.60211l11.178 6.7864c0.20637 0.12314 0.45727 0.05425 0.55372-0.15345l0.59576-1.219c0.09646-0.20953 0.01368-0.4788-0.19436-0.60211zm-6.744 1.2363c-0.18057-0.1085-0.4055-0.048054-0.49314 0.13496l-0.22786 0.47647c-0.087659 0.18606-0.013307 0.41807 0.16899 0.52674l4.3855 2.6091c0.18057 0.1085 0.4055 0.04805 0.49314-0.13496l0.22786-0.47647c0.087659-0.18606 0.013313-0.41807-0.16899-0.52674z" fill="#c31" stroke-width=".72418"/><path d="m3.2202 19.868c-0.32452-0.06015-0.65605 0.24826-0.73855 0.6953l-0.21451 1.1623c-0.00479 0.02593-0.00838 0.05023-0.00976 0.07494l-0.59988-0.1112c-0.39336-0.07292-0.63981 0.38072-0.89939 0.85042l-0.72938 1.2518c-0.25628 0.45182 0.13318 1.0418 0.53638 1.1166l11.801 2.1875c0.39336 0.07291 1.007-0.33116 0.89939-0.85042l-0.35237-1.4523c-0.11088-0.50138-0.13318-1.0418-0.53638-1.1166l-0.59988-0.1112c0.0056-0.02576 0.01301-0.04844 0.01763-0.07348l0.21451-1.1623c0.08251-0.44704-0.11702-0.8539-0.44154-0.91405z" fill="#c31" stroke-width=".95359"/></g></svg>
